<?xml version="1.0" encoding="utf-8"?>
<!-- Generator: Adobe Illustrator 19.0.0, SVG Export Plug-In . SVG Version: 6.00 Build 0)  -->
<svg version="1.1" id="layer" xmlns="http://www.w3.org/2000/svg" xmlns:xlink="http://www.w3.org/1999/xlink" x="0px" y="0px"
	 viewBox="-153 -46 652 652" style="enable-background:new -153 -46 652 652;" xml:space="preserve">
<style type="text/css">
	.st0{fill:#EF3D42;}
</style>
<rect x="194.6" y="217.9" class="st0" width="34.8" height="137.4"/>
<g>
	<path class="st0" d="M126.7,276.2c12.8-0.7,20.8,13,20.8,31.3c0,23.5-8.1,33.7-21.3,33.7c-12.5,0-21.3-10.2-21.3-33.7
		C104.9,293.5,109.9,276.2,126.7,276.2 M71.3,310.2c0,33.6,24.3,50.8,55.8,50.8c31.5,0,55.8-16.8,55.8-52.9c0-30.6-21.3-51-56-51
		C93.8,257.1,71.3,276.1,71.3,310.2"/>
	<path class="st0" d="M299.4,337c-9.9,0-18.6-7.7-18.6-19.3h71.6c0.5-35.4-20.6-60.6-55.5-60.6c-30.2,0-53.4,20.7-53.4,52.7
		c0,33.1,23.4,51.1,53.6,51.1c22,0,45.8-8.1,52.3-32.5h-35.9C310.8,334.2,305.4,337,299.4,337 M314.9,297.8h-34.1
		C280.8,272.4,315.2,272.2,314.9,297.8"/>
	<path class="st0" d="M-13.9,355.3l0-60.3c0-9.4,7.6-17,17-17c9.4,0,17,7.6,17,17l0,60.3l33.4,0l0-71.9c-0.6-6.8-7.2-16.8-15.2-21.2
		C27.6,257,3.6,251.1-16.3,273c-6.4-6.8-14.4-12-23.2-14.4c-14.8-3.2-30.3,0.1-41.1,11.2c-1.5,1.3-2.7,4.2-2.6,1.8v-12.2h-34.3v95.9
		h34.3v-60.4c0-9.4,7.6-17,17-17c9.4,0,17,7.6,17,17l0,60.4H-13.9z"/>
	<path class="st0" d="M470.7,264.1v-2.6h2.7c1.3,0,1.5,0.8,1.5,1.3c0,1-0.6,1.3-1.7,1.3H470.7z M468.6,269.5h2.1v-3.8h2.2
		c1.6,0,1.7,0.5,1.7,1.8c0,1,0.1,1.5,0.2,2h2.4v-0.3c-0.5-0.2-0.5-0.5-0.5-1.9c0-1.8-0.4-2.1-1.3-2.5c1-0.3,1.6-1.2,1.6-2.3
		c0-0.8-0.5-2.8-3.2-2.8h-5.2V269.5z"/>
	<path class="st0" d="M462.9,264.8c0-5.4,4.4-9.8,9.8-9.8c5.4,0,9.8,4.4,9.8,9.8c0,5.4-4.4,9.8-9.8,9.8
		C467.3,274.6,462.9,270.2,462.9,264.8 M472.7,273.3c4.7,0,8.5-3.8,8.5-8.5c0-4.7-3.8-8.5-8.5-8.5c-4.7,0-8.5,3.8-8.5,8.5
		C464.2,269.5,468,273.3,472.7,273.3"/>
	<path class="st0" d="M426.8,259.4l-16.4,23.3c-5.1-7.1-9.8-15.8-14.5-23.3h-38.6l30.2,44.5c0,0-22.5,33.5-34.4,51.4l33.7,0
		l18.8-30.4c3.1,4.5,10.4,18.7,17.7,30.4h37.2c-9.4-15.4-31.7-51.5-31.7-51.5c9.2-15.2,21.6-29.2,31.1-44.3H426.8z"/>
</g>
</svg>
